<svg width="14" height="14" viewBox="0 0 14 14" fill="none" xmlns="http://www.w3.org/2000/svg">
<g clip-path="url(#clip0_4104_7948)">
<path d="M12.75 8.25H8.5C8.36194 8.25 8.25 8.36194 8.25 8.5V12.75C8.25 13.4403 7.69031 14 7 14C6.30969 14 5.75 13.4403 5.75 12.75V8.5C5.75 8.36194 5.63806 8.25 5.5 8.25H1.25C0.559692 8.25 0 7.69031 0 7C0 6.30969 0.559692 5.75 1.25 5.75H5.5C5.63806 5.75 5.75 5.63806 5.75 5.5V1.25C5.75 0.559691 6.30969 -1.66893e-06 7 -1.66893e-06C7.69031 -1.66893e-06 8.25 0.559691 8.25 1.25V5.5C8.25 5.63806 8.36194 5.75 8.5 5.75H12.75C13.4403 5.75 14 6.30969 14 7C14 7.69031 13.4403 8.25 12.75 8.25Z" fill="#073B3A"/>
</g>
<defs>
<clipPath id="clip0_4104_7948">
<rect width="14" height="14" fill="white" transform="matrix(1 0 0 -1 0 14)"/>
</clipPath>
</defs>
</svg>
