<svg width="24" height="24" viewBox="0 0 24 24" fill="none" xmlns="http://www.w3.org/2000/svg">
<g clip-path="url(#clip0_2313_10160)">
<path d="M19.924 9.154H19.41L19.437 7.264C19.4341 7.15347 19.3915 7.04768 19.317 6.966L14.901 2.134C14.8653 2.09378 14.8218 2.06118 14.7732 2.03816C14.7245 2.01513 14.6718 2.00216 14.618 2H5.37801C5.17084 2.00333 4.97304 2.0869 4.82625 2.23313C4.67946 2.37936 4.59513 2.57684 4.59101 2.784V9.154H4.07601C3.79101 9.154 3.51601 9.272 3.31601 9.482C3.11195 9.69543 2.99867 9.97972 3.00001 10.275V16.105C3.00001 16.723 3.48201 17.225 4.07601 17.225H4.59101V21.215C4.59489 21.4227 4.67938 21.6207 4.82663 21.7672C4.97387 21.9137 5.17232 21.9972 5.38001 22H18.658C19.073 22 19.438 21.648 19.438 21.216V17.226H19.925C20.519 17.226 21.001 16.723 21.001 16.104V10.274C21.001 9.978 20.888 9.692 20.686 9.482C20.5882 9.37868 20.4703 9.29633 20.3397 9.23995C20.209 9.18356 20.0683 9.15432 19.926 9.154M5.95001 3.378H12.906V7.955C12.9056 8.05806 12.945 8.15728 13.016 8.232C13.0504 8.2682 13.0919 8.29706 13.1377 8.31682C13.1836 8.33659 13.233 8.34685 13.283 8.347H18.042V9.154H5.95001V3.378ZM5.95001 20.622V17.225H18.042V20.622H5.95001ZM14.291 3.52L14.676 3.954L17.256 6.807L17.399 6.98H14.762C14.562 6.98 14.436 6.94667 14.384 6.88C14.3307 6.81467 14.2997 6.71033 14.291 6.567V3.52ZM5.00001 16.232V10.232H6.91801C7.64468 10.232 8.11801 10.262 8.33801 10.322C8.67801 10.412 8.96235 10.608 9.19101 10.91C9.41968 11.2107 9.53401 11.6 9.53401 12.078C9.53401 12.446 9.46801 12.756 9.33601 13.008C9.20401 13.258 9.03635 13.4547 8.83301 13.598C8.64773 13.7339 8.43682 13.8309 8.21301 13.883C7.92768 13.9403 7.51468 13.969 6.97401 13.969H6.19501V16.232H5.00001ZM6.19501 11.247V12.95H6.84901C7.32035 12.95 7.63535 12.9187 7.79401 12.856C7.94735 12.7975 8.07866 12.6927 8.16969 12.5561C8.26073 12.4196 8.30698 12.258 8.30201 12.094C8.30941 11.8964 8.2415 11.7034 8.11201 11.554C7.98731 11.4128 7.81781 11.3189 7.63201 11.288C7.49001 11.2613 7.20335 11.248 6.77201 11.248L6.19501 11.247ZM10.235 10.232H12.419C12.9117 10.232 13.2873 10.2703 13.546 10.347C13.8927 10.4503 14.19 10.6343 14.438 10.899C14.6853 11.1643 14.8737 11.4883 15.003 11.871C15.133 12.255 15.1977 12.7277 15.197 13.289C15.197 13.783 15.1363 14.2087 15.015 14.566C14.8663 15.0027 14.655 15.356 14.381 15.626C14.1743 15.8313 13.8943 15.9913 13.541 16.106C13.2777 16.19 12.9253 16.232 12.484 16.232H10.235V10.232ZM11.43 11.247V15.221H12.322C12.656 15.221 12.897 15.202 13.045 15.164C13.239 15.1147 13.3997 15.0313 13.527 14.914C13.6557 14.7967 13.76 14.6037 13.84 14.335C13.9207 14.0663 13.961 13.7 13.961 13.236C13.961 12.772 13.921 12.416 13.841 12.168C13.7766 11.9496 13.6599 11.7501 13.501 11.587C13.3467 11.4429 13.1552 11.3448 12.948 11.304C12.7813 11.266 12.4547 11.247 11.968 11.247H11.43ZM15.943 16.232V10.232H20V11.247H17.138V12.667H19.608V13.682H17.138V16.232H15.943Z" fill="#030E0F"/>
</g>
<defs>
<clipPath id="clip0_2313_10160">
<rect width="20" height="20" fill="white" transform="translate(2 2)"/>
</clipPath>
</defs>
</svg>
