<svg width="64" height="64" viewBox="0 0 64 64" fill="none" xmlns="http://www.w3.org/2000/svg">
<g id="close-quote 1">
<path id="Vector" d="M15 29C8.92487 29 4 33.9249 4 40C4 46.0751 8.92487 51 15 51C21.0751 51 26 46.0751 26 40C26 33.9249 21.0751 29 15 29Z" stroke="#073B3A" stroke-width="4" stroke-linecap="round" stroke-linejoin="round"/>
<path id="Vector_2" d="M4 39C4 32.1044 6.73928 25.4912 11.6152 20.6152C16.4912 15.7393 23.1044 13 30 13" stroke="#073B3A" stroke-width="4" stroke-linecap="round" stroke-linejoin="round"/>
<path id="Vector_3" d="M47 29C40.9249 29 36 33.9249 36 40C36 46.0751 40.9249 51 47 51C53.0751 51 58 46.0751 58 40C58 33.9249 53.0751 29 47 29Z" stroke="#073B3A" stroke-width="4" stroke-linecap="round" stroke-linejoin="round"/>
<path id="Vector_4" d="M36 39C36 32.1044 38.7393 25.4912 43.6152 20.6152C48.4912 15.7393 55.1044 13 62 13" stroke="#073B3A" stroke-width="4" stroke-linecap="round" stroke-linejoin="round"/>
</g>
</svg>
