<svg width="28" height="31" viewBox="0 0 28 31" fill="none" xmlns="http://www.w3.org/2000/svg">
<path fill-rule="evenodd" clip-rule="evenodd" d="M26.1274 0.962691C26.4398 0.951502 26.7439 1.06488 26.9727 1.27789C27.2016 1.4909 27.3364 1.7861 27.3476 2.09853L27.8538 16.2348C27.865 16.5472 27.7517 16.8513 27.5386 17.0801C27.3256 17.309 27.0304 17.4438 26.718 17.455C26.4056 17.4662 26.1015 17.3528 25.8727 17.1398C25.6438 16.9268 25.509 16.6316 25.4978 16.3192L25.0934 5.02664L2.04512 29.7895C1.93952 29.9029 1.8126 29.9944 1.67162 30.0588C1.53064 30.1232 1.37835 30.1592 1.22345 30.1648C1.06856 30.1703 0.914088 30.1453 0.768861 30.0912C0.623633 30.037 0.490494 29.9548 0.377044 29.8492C0.263594 29.7436 0.172056 29.6167 0.107655 29.4757C0.0432544 29.3347 0.00725272 29.1824 0.00170574 29.0275C-0.00384124 28.8726 0.0211751 28.7182 0.0753263 28.5729C0.129477 28.4277 0.211703 28.2946 0.317308 28.1811L23.368 3.42057L12.0755 3.82497C11.7631 3.83616 11.459 3.72278 11.2302 3.50977C11.0013 3.29676 10.8665 3.00156 10.8553 2.68913C10.8441 2.3767 10.9575 2.07262 11.1705 1.84379C11.3835 1.61496 11.6787 1.48011 11.9911 1.46893L26.1274 0.962691Z" fill="white"/>
</svg>
