<svg width="24" height="24" viewBox="0 0 24 24" fill="none" xmlns="http://www.w3.org/2000/svg">
<path d="M11.3047 2C12.3171 2 12.8896 2.1469 13.5621 2.80594L13.6399 2.88415L18.7765 8.1041C19.3927 8.73536 19.588 9.20145 19.6368 10.0237L19.6464 10.2369L19.6503 10.4667L19.6511 19.0375C19.6511 20.9344 18.7304 21.9107 16.8808 21.9488L16.7664 21.95H6.88471C5.00604 21.95 4.0393 21.0206 4.00119 19.153L4 19.0375V4.92163C4 3.02509 4.92941 2.0397 6.77077 2.00119L6.88471 2H11.3047ZM11.0998 3.49794H6.96848C6.03153 3.49794 5.53129 3.995 5.49953 4.86168L5.49794 4.94982V19.0097C5.49794 19.9101 5.9688 20.4183 6.86764 20.4501L6.95895 20.4521H16.6922C17.6287 20.4521 18.1206 19.9725 18.1516 19.0982L18.1532 19.0097V10.6537H12.8491C11.7283 10.6537 11.134 10.1094 11.101 9.00334L11.0998 8.90409V3.49794ZM7.90544 13.9323C8.24806 13.9323 8.52557 14.2102 8.52557 14.5528V18.8962C8.52557 19.2384 8.24766 19.5163 7.90544 19.5163H7.2849C6.94228 19.5163 6.66437 19.2384 6.66437 18.8958V14.5524C6.66437 14.2102 6.94228 13.9323 7.2849 13.9323H7.90544ZM13.4895 15.7935C13.8321 15.7935 14.1096 16.0714 14.1096 16.414V18.8958C14.1096 19.2384 13.8317 19.5163 13.4895 19.5163H12.8689C12.5263 19.5163 12.2484 19.2384 12.2484 18.8958V16.4144C12.2484 16.0714 12.5263 15.7935 12.8689 15.7935H13.4895ZM10.6972 12.0711C11.0399 12.0711 11.3178 12.349 11.3178 12.6912V18.8958C11.3178 19.2384 11.0399 19.5163 10.6972 19.5163H10.0767C9.73409 19.5163 9.45657 19.2384 9.45657 18.8958V12.6916C9.45657 12.349 9.73448 12.0715 10.0767 12.0715L10.6972 12.0711ZM12.5049 3.78657V8.72742C12.5049 9.07798 12.6367 9.23044 12.9547 9.24711L13.0166 9.2487H17.8642L12.5049 3.78657Z" fill="#030E0F"/>
</svg>
