<svg width="40" height="40" viewBox="0 0 40 40" fill="none" xmlns="http://www.w3.org/2000/svg">
<g clip-path="url(#clip0_2320_97954)">
<path d="M27.5015 10.0001C29.032 9.99991 30.5013 10.6012 31.5925 11.6743C32.6838 12.7475 33.3095 14.2065 33.3349 15.7368C33.4849 17.1785 33.4632 19.3051 32.4882 21.7601C31.4915 24.2701 29.5482 27.0068 26.0014 29.6668C25.8263 29.7981 25.6271 29.8937 25.4151 29.948C25.203 30.0023 24.9824 30.0143 24.7657 29.9834C24.3281 29.9209 23.9333 29.6871 23.6681 29.3335C23.4029 28.9798 23.289 28.5353 23.3515 28.0978C23.414 27.6602 23.6478 27.2653 24.0014 27.0001C26.6081 25.0451 28.1015 23.1451 28.9565 21.4835C28.1549 21.6893 27.3186 21.7222 26.5033 21.5801C25.688 21.4379 24.9123 21.1238 24.2277 20.6588C23.543 20.1937 22.9652 19.5883 22.5326 18.8828C22.1 18.1773 21.8224 17.3878 21.7184 16.5667C21.6143 15.7457 21.6862 14.9119 21.9292 14.1207C22.1722 13.3296 22.5808 12.5992 23.1278 11.9781C23.6747 11.357 24.3476 10.8594 25.1017 10.5184C25.8558 10.1774 26.6738 10.0007 27.5015 10.0001ZM12.5012 10.0001C14.0318 9.99991 15.501 10.6012 16.5923 11.6743C17.6835 12.7475 18.3093 14.2065 18.3347 15.7368C18.4847 17.1785 18.463 19.3051 17.488 21.7601C16.493 24.2701 14.5479 27.0068 11.0012 29.6668C10.8261 29.7981 10.6269 29.8937 10.4149 29.948C10.2028 30.0023 9.98218 30.0143 9.7655 29.9834C9.32791 29.9209 8.93308 29.6871 8.66786 29.3335C8.40264 28.9798 8.28876 28.5353 8.35127 28.0978C8.41378 27.6602 8.64757 27.2653 9.0012 27.0001C11.6079 25.0451 13.1013 23.1451 13.9563 21.4835C13.1547 21.6893 12.3184 21.7222 11.5031 21.5801C10.6878 21.4379 9.91204 21.1238 9.22743 20.6588C8.54282 20.1937 7.96501 19.5883 7.53237 18.8828C7.09973 18.1773 6.82218 17.3878 6.71814 16.5667C6.61411 15.7457 6.68598 14.9119 6.92898 14.1207C7.17198 13.3296 7.58054 12.5992 8.12753 11.9781C8.67452 11.357 9.34741 10.8594 10.1015 10.5184C10.8556 10.1774 11.6736 10.0007 12.5012 10.0001Z" fill="white"/>
</g>
<defs>
<clipPath id="clip0_2320_97954">
<rect width="40.0006" height="40" fill="white"/>
</clipPath>
</defs>
</svg>
