<svg width="26" height="26" viewBox="0 0 26 26" fill="none" xmlns="http://www.w3.org/2000/svg">
<path d="M10.9489 26.0002C9.46978 26.0002 8.08356 25.722 6.79023 25.1655C5.49689 24.6091 4.36712 23.8473 3.40089 22.8802C2.43467 21.9131 1.67334 20.7833 1.11689 19.4909C0.560449 18.1984 0.282227 16.8126 0.282227 15.3335C0.282227 12.3762 1.32045 9.8593 3.39689 7.78285C5.47334 5.70641 7.99067 4.66774 10.9489 4.66685H12.6876L10.0049 1.98552L10.9489 0.922852L15.3582 5.33352L10.9489 9.74418L10.0049 8.68285L12.6876 6.00018H10.9489C8.34889 6.00018 6.14312 6.90596 4.33156 8.71752C2.52 10.5291 1.61467 12.7344 1.61556 15.3335C1.61645 17.9326 2.52178 20.1384 4.33156 21.9508C6.14134 23.7633 8.34711 24.6686 10.9489 24.6669C11.7267 24.6669 12.4933 24.5722 13.2489 24.3829C14.0044 24.1935 14.7267 23.9104 15.4156 23.5335L16.3742 24.4935C15.5556 24.9789 14.6871 25.3513 13.7689 25.6109C12.8507 25.8704 11.9107 26.0002 10.9489 26.0002ZM18.9489 21.4362L12.8462 15.3335L18.9489 9.23085L25.0502 15.3335L18.9489 21.4362Z" fill="#030E0F"/>
</svg>
