<!DOCTYPE svg PUBLIC "-//W3C//DTD SVG 1.1//EN" "http://www.w3.org/Graphics/SVG/1.1/DTD/svg11.dtd">
<!-- Uploaded to: SVG Repo, www.svgrepo.com, Transformed by: SVG Repo Mixer Tools -->
<svg width="800px" height="800px" viewBox="0 0 16 16" version="1.1" xmlns="http://www.w3.org/2000/svg" xmlns:xlink="http://www.w3.org/1999/xlink" fill="#fff" stroke="#fff">
<g id="SVGRepo_bgCarrier" stroke-width="0"/>
<g id="SVGRepo_tracerCarrier" stroke-linecap="round" stroke-linejoin="round"/>
<g id="SVGRepo_iconCarrier"> <rect width="16" height="16" id="icon-bound" fill="none"/> <path d="M4,12L4,13L12,13L12,12L13,12L13,4L12,4L12,3L4,3L4,4L3,4L3,12L4,12ZM7,7L9,7L9,9L7,9L7,7ZM16,12L16,16L12,16L12,15L4,15L4,16L0,16L0,12L1,12L1,4L0,4L0,0L4,0L4,1L12,1L12,0L16,0L16,4L15,4L15,12L16,12Z"/> </g>
</svg>